# xmcd
#
# Track frame offsets: 
#        183
#        20710
#        46310
#        51585
#        67923
#        82780
#        99523
#        121723
#        146253
#        165223
#        187073
#        203990
#        226605
#        251743
#        276803
#
# Disc length: 3892 seconds
#
# Revision: 2
# Processed by: cddbd v1.5.2PL0 Copyright (c) Steve Scherf et al.
# Submitted via: ExactAudioCopyFreeDBPlugin 1.0
#
DISCID=c20f320f
DTITLE=Nina Simone - Porgy
DYEAR=1992
DGENRE=Blues
TTITLE0=My babe just cares for me
TTITLE1=For a while
TTITLE2=You took my teeth
TTITLE3=Sugar in my bowl
TTITLE4=Backlash blues
TTITLE5=Do what you gotta do
TTITLE6=Mississippi goddamn
TTITLE7=See lime woman
TTITLE8=The other woman
TTITLE9=Four women
TTITLE10=I sing just to know that i'm alive
TTITLE11=Porgy
TTITLE12=It's cold out here
TTITLE13=Touching and caring
TTITLE14=Saratoga
EXTD=YEAR: 1992
EXTT0=
EXTT1=
EXTT2=
EXTT3=
EXTT4=
EXTT5=
EXTT6=
EXTT7=
EXTT8=
EXTT9=
EXTT10=
EXTT11=
EXTT12=
EXTT13=
EXTT14=
PLAYORDER=
